<svg height="512" viewBox="0 0 64 64" width="512" xmlns="http://www.w3.org/2000/svg"><g id="Layer_13" data-name="Layer 13"><circle cx="32" cy="32" fill="#88929f" r="30"/><circle cx="32" cy="32" fill="#c1c8d1" r="16"/><g fill="#88929f"><path d="m30 28v-7.82a12 12 0 0 0 -6.42 3.28z"/><path d="m42.86 37.07a11.81 11.81 0 0 0 1.14-5.07 12 12 0 0 0 -.77-4.2l-7.33 4.35z"/><path d="m21.14 26.93a11.81 11.81 0 0 0 -1.14 5.07 12 12 0 0 0 .77 4.2l7.33-4.35z"/><path d="m30 35.65-7.06 4.2a11.92 11.92 0 0 0 7.06 4z"/><path d="m34 36v7.81a12 12 0 0 0 6.42-3.28z"/><path d="m34 28.35 7.06-4.2a11.92 11.92 0 0 0 -7.06-4z"/><circle cx="32" cy="32" r="2"/></g><path d="m57 32h-2a23 23 0 0 0 -23-23v-2a25 25 0 0 1 25 25z" fill="#c1c8d1"/><path d="m32 57a25 25 0 0 1 -25-25h2a23 23 0 0 0 23 23z" fill="#c1c8d1"/></g></svg>