<svg id="Capa_1" enable-background="new 0 0 512.001 512.001" height="512" viewBox="0 0 512.001 512.001" width="512" xmlns="http://www.w3.org/2000/svg"><g><path d="m512.001 392.785c-.891 5.889 1.408 8.367-32.18 22.596-83.392 35.328-169.939 15.953-257.419-9.289 46.762-19.792 91.003-42.94 158.757-42.94 72.685.001 111.965 21.643 130.842 29.633z" fill="#f29541"/><path d="m512.001 392.958c-271.857-93.017-275.585 113.61-504.51 14.283-10.049-4.368-10.071-18.981.437-22.913 40.613-15.951 98.926-50.859 110.551-93.005h279.646c11.716 42.453 67.502 74.68 107.847 91.897 4.017 1.951 6.04 5.845 6.029 9.738z" fill="#fde55f"/><path d="m512.001 392.958c-125.57-42.96-193.94-22-253.72 3.22v-104.86h139.84c11.72 42.46 67.51 74.68 107.85 91.9 4.02 1.95 6.04 5.85 6.03 9.74z" fill="#f7ba57"/><path d="m396.021 214.258v19.66h-275.48v-19.66c0-75.67 61.56-137.23 137.24-137.23h1c75.67 0 137.24 61.56 137.24 137.23z" fill="#fde55f"/><path d="m396.021 214.258v19.66h-137.74v-156.89h.5c75.67 0 137.24 61.56 137.24 137.23z" fill="#f7ba57"/><path d="m396.022 230.054 2.104 61.268h-262.334c-8.427 0-15.248-6.831-15.248-15.248v-46.02z" fill="#f29541"/><path d="m398.121 291.318h-139.84v-61.26h137.74z" fill="#ea741b"/><path d="m206.641 255.761-3.164-10.457 3.123-10.482c5.885-19.744-6.11-40.419-26.176-45.109l-10.653-2.489-7.518-7.949c-14.178-14.992-38.059-14.919-52.151.114l-7.481 7.98-10.628 2.534c-20.035 4.779-31.937 25.497-25.972 45.214l3.164 10.457-3.123 10.482c-5.885 19.744 6.109 40.42 26.176 45.109l10.653 2.489 7.518 7.949c14.205 15.02 38.085 14.889 52.151-.114l7.481-7.98 10.626-2.534c20.035-4.778 31.939-25.496 25.974-45.214z" fill="#e85b8e"/><path d="m180.671 300.971-10.63 2.54c-4.298 3.439-13.008 19.355-33.71 19.29v-154.73c20.449.065 29.018 15.626 33.44 19.15l10.65 2.49c20.07 4.69 32.06 25.37 26.18 45.11l-3.12 10.48 3.16 10.46c5.97 19.72-5.94 40.44-25.97 45.21z" fill="#db1f79"/><path d="m173.593 271.311c-.001 0-.001 0 0 0l-15.082 3.597c-7.032 1.677-8.99 6.673-18.199 15.722-2.094 2.234-5.641 2.246-7.748.017-9.232-8.993-11.223-14-18.274-15.648l-15.113-3.532c-2.982-.697-4.764-3.762-3.889-6.702l4.432-14.871c2.061-6.908-1.26-11.044-4.508-23.611-.887-2.929.875-6.005 3.858-6.716l15.082-3.597c7.018-1.674 8.943-6.627 18.199-15.723 2.094-2.232 5.641-2.245 7.747-.017l10.665 11.277c4.977 5.261 10.293 4.456 22.723 7.903 2.981.697 4.766 3.761 3.89 6.702l-4.432 14.87c-2.061 6.91 1.261 11.047 4.508 23.611.886 2.93-.877 6.006-3.859 6.718z" fill="#db1f79"/><path d="m173.591 271.311-15.08 3.6c-7.03 1.67-8.99 6.67-18.2 15.72-1.07 1.14-2.53 1.71-3.98 1.67v-93.73c3.822.055 4.673 3.281 14.43 12.94 4.98 5.26 10.29 4.45 22.72 7.9 2.98.7 4.77 3.76 3.89 6.7l-4.43 14.87c-2.06 6.91 1.26 11.05 4.51 23.61.89 2.93-.88 6.01-3.86 6.72z" fill="#b2096a"/><path d="m150.724 251.37c-3.959 9.472-15.649 12.634-23.838 6.45-5.579-4.213-7.644-11.86-4.948-18.31 3.959-9.472 15.649-12.634 23.838-6.45 5.578 4.213 7.644 11.859 4.948 18.31z" fill="#fde55f"/><path d="m150.721 251.371c-2.57 6.14-8.39 9.63-14.39 9.64v-31.14c11.047-.034 18.639 11.349 14.39 21.5z" fill="#f7ba57"/></g></svg>